<svg width="170" height="170" viewBox="0 0 170 170" fill="none" xmlns="http://www.w3.org/2000/svg">
<path d="M150.087 124.289C149.562 120.353 149.047 116.432 148.504 112.514C148.339 111.324 147.608 109.92 148.026 109.021C148.436 108.125 149.983 107.78 150.997 107.136C152.526 106.161 154.03 105.139 155.714 104.024C160.477 109.881 163.2 116.562 163.884 124.289H150.087ZM141.64 93.1521C144.989 95.2495 148.339 97.3433 152.113 99.7069C149.868 101.153 148.141 102.265 146.385 103.394C144.68 100.024 143.054 96.8145 141.428 93.6054C141.5 93.4543 141.568 93.3032 141.64 93.1521ZM150.227 130.229H163.859C163.272 137.935 160.499 144.598 155.825 150.451C153.278 148.936 150.821 147.501 148.403 146.004C148.126 145.831 147.867 145.295 147.918 144.975C148.652 140.086 149.436 135.208 150.227 130.229Z" fill="#FCEAEE"/>
<path d="M137.833 89.4538C137.128 90.7453 142.989 93.9364 147.576 99.1961C156.904 109.881 156.857 124.404 156.875 130.196C156.915 141.241 153.515 151.426 152.954 152.152C152.94 152.17 152.861 152.268 152.893 152.336C153.098 152.789 157.85 151.12 159.092 150.566C166.29 147.332 166.578 131.513 166.618 129.308C166.618 129.308 166.913 113.245 156.433 99.1961C153.13 94.7674 148.975 91.9757 144.478 90.3388C142.435 89.5977 138.391 88.4393 137.833 89.4538Z" fill="#E6A6CA"/>
<path d="M141.418 161.006C143.022 157.826 144.627 154.649 146.361 151.221C148.051 152.278 149.821 153.386 152.138 154.84C148.354 157.218 145.004 159.319 141.659 161.423L141.418 161.006ZM22.7154 33.918C25.3596 33.918 28.0038 33.9432 30.648 33.9108C32.6986 33.8856 33.8499 32.8855 33.8894 31.1838C33.929 29.4174 32.7238 28.2842 30.63 28.2698C25.2876 28.241 19.9416 28.2374 14.5956 28.2734C12.563 28.2842 11.2571 29.5145 11.3182 31.2018C11.3758 32.8531 12.5918 33.8892 14.6136 33.9108C17.3118 33.9432 20.0136 33.918 22.7154 33.918ZM22.5463 39.5914C19.956 39.5914 17.3658 39.5698 14.7755 39.5986C12.5846 39.6237 11.2607 40.7642 11.3146 42.5054C11.3686 44.1927 12.6313 45.2468 14.7647 45.2575C19.9992 45.2827 25.2337 45.2827 30.4681 45.2611C32.713 45.2468 33.9326 44.1711 33.8894 42.3507C33.8499 40.6131 32.6591 39.6237 30.4825 39.5986C27.8347 39.5698 25.1905 39.5914 22.5463 39.5914ZM33.9218 84.8489C33.9218 78.3877 33.9542 71.9264 33.911 65.4652C33.8715 60.0832 30.443 56.6727 25.1042 56.6043C23.2802 56.5827 21.4562 56.5647 19.6358 56.6187C15.0093 56.7626 11.365 60.2127 11.3362 64.8212C11.2535 78.1862 11.2535 91.5512 11.3398 104.913C11.3686 109.453 14.9698 112.91 19.4883 113.094C20.8122 113.147 22.1469 113.018 23.4601 113.133C30.3422 113.741 34.314 109.338 33.9866 102.74C33.688 96.7893 33.9218 90.8137 33.9218 84.8489ZM39.5089 135.722H5.72758C5.6988 135.082 5.65204 134.499 5.65204 133.916C5.64844 98.124 5.64844 62.3317 5.64844 26.5357C5.64844 23.4958 6.54424 22.6036 9.61297 22.6036C18.3407 22.6 27.0684 22.5964 35.7962 22.6036C38.6526 22.6072 39.588 23.5174 39.588 26.3667C39.5952 62.2705 39.5916 98.1744 39.588 134.078C39.588 134.567 39.5412 135.057 39.5089 135.722ZM110.284 16.941C112.151 16.941 114.026 16.977 115.896 16.9302C117.641 16.8834 118.735 15.7754 118.753 14.1709C118.767 12.5807 117.673 11.3576 115.954 11.3252C112.216 11.2568 108.471 11.264 104.733 11.3216C103.042 11.3468 101.848 12.5915 101.826 14.1061C101.805 15.689 103.046 16.8942 104.834 16.9338C106.65 16.9734 108.467 16.941 110.284 16.941ZM96.1564 98.2931V96.4583V9.9509C96.1564 6.42168 96.9226 5.6482 100.409 5.6482C107.147 5.6482 113.889 5.6446 120.627 5.6482C123.512 5.6518 124.444 6.5368 124.448 9.3645C124.455 34.0583 124.451 58.7521 124.455 83.4459C124.455 84.3057 124.523 85.036 123.275 85.1547C112.853 86.144 104.028 90.4899 96.7212 97.9585C96.6492 98.034 96.5377 98.07 96.1564 98.2931Z" fill="#FCEAEE"/>
<path d="M41.7387 136.838H34.209V19.4845H41.7387V136.838Z" fill="#E6A6CA"/>
<path d="M45.3691 118.673V68.023H90.508V69.552C90.508 81.3161 90.5188 93.0802 90.4792 104.841C90.4792 105.675 90.1662 106.539 89.8676 107.337C88.6049 110.741 87.2414 114.108 86.029 117.526C85.734 118.368 85.5109 118.803 84.5144 118.803C71.8149 118.767 59.1119 118.778 46.4088 118.774C46.0923 118.774 45.7721 118.713 45.3691 118.673Z" fill="#FFFAFA"/>
<path d="M67.9908 152.771C63.4615 152.771 58.9357 152.764 54.4064 152.775C52.1579 152.782 50.9275 153.822 50.9671 155.642C51.0031 157.383 52.2298 158.416 54.3704 158.416C63.3751 158.43 72.3763 158.43 81.3774 158.419C83.554 158.416 84.8887 157.268 84.8455 155.509C84.8059 153.8 83.554 152.782 81.4098 152.775C76.938 152.764 72.4662 152.771 67.9908 152.771ZM68.016 141.464C63.3248 141.464 58.6299 141.442 53.9387 141.478C52.1255 141.493 51.0318 142.543 50.9707 144.141C50.9095 145.803 52.0248 147.076 53.8523 147.087C63.1845 147.134 72.5166 147.145 81.8487 147.055C82.7013 147.047 83.8526 146.429 84.3023 145.731C84.7448 145.047 84.8419 143.651 84.4174 143.018C83.9029 142.252 82.6941 141.561 81.766 141.532C77.1863 141.385 72.5993 141.464 68.016 141.464ZM45.416 124.545H84.644C84.9246 127.818 85.0865 131.006 85.4967 134.161C86.0939 138.744 87.7092 143.018 89.8138 147.123C90.2203 147.918 90.4613 148.882 90.4757 149.774C90.5513 153.419 90.5189 157.063 90.5009 160.711C90.4901 163.01 89.4576 164.064 87.1551 164.064C74.2866 164.078 61.4181 164.078 48.5495 164.064C46.3982 164.06 45.2973 163.06 45.2937 160.967C45.2613 149.095 45.2757 137.219 45.2829 125.343C45.2829 125.127 45.3513 124.915 45.416 124.545Z" fill="#FCEAEE"/>
<path d="M84.6896 36.7817V100.966C83.2649 104.042 81.5309 108.399 80.2646 113.809C79.1745 118.468 77.4872 126.005 78.9371 135.51C79.5379 139.46 80.9589 145.554 84.6932 152.336C84.7471 156.272 84.8047 160.204 84.8587 164.14H90.7155V36.7817H84.6896ZM128.091 117.353H118.791V3.10111H128.091V117.353Z" fill="#E6A6CA"/>
<path d="M96.1633 156.452C96.1633 158.085 96.1237 159.628 96.1741 161.168C96.2245 162.668 97.0231 163.841 98.4981 163.96C100.862 164.15 103.251 164.01 105.578 164.01C102.448 161.499 99.3795 159.031 96.1633 156.452ZM112.942 161.423L113.151 160.967C111.525 157.765 109.902 154.563 108.19 151.188C106.427 152.322 104.708 153.43 102.463 154.872C106.247 157.236 109.597 159.33 112.942 161.423ZM113.277 93.3428C109.384 94.9941 105.995 97.0663 102.801 99.9839C104.801 101.225 106.546 102.308 108.219 103.351C109.942 99.9372 111.547 96.7641 113.277 93.3428ZM141.414 161.002L141.658 161.423C145.008 159.319 148.353 157.214 152.138 154.84C149.821 153.386 148.051 152.278 146.36 151.221C144.626 154.649 143.022 157.826 141.414 161.002ZM141.64 93.1521C141.568 93.3032 141.5 93.4543 141.428 93.6054C143.054 96.8145 144.68 100.024 146.386 103.394C148.141 102.265 149.868 101.153 152.113 99.7069C148.339 97.3433 144.99 95.2495 141.64 93.1521ZM39.4475 141.565H5.77771V147.058H39.4475V141.565ZM150.228 130.229C149.436 135.208 148.652 140.086 147.918 144.975C147.868 145.295 148.127 145.831 148.404 146.004C150.821 147.501 153.278 148.936 155.826 150.451C160.499 144.598 163.273 137.935 163.859 130.229H150.228ZM90.6878 130.225C91.3749 138.014 94.0911 144.698 98.8759 150.548C100.545 149.44 102.045 148.415 103.574 147.443C104.589 146.799 106.139 146.454 106.553 145.562C106.97 144.666 106.237 143.259 106.071 142.068C105.531 138.151 105.017 134.226 104.485 130.225H90.6878ZM104.348 124.35C105.139 119.364 105.934 114.486 106.647 109.597C106.701 109.237 106.247 108.654 105.877 108.417C104.207 107.348 102.477 106.38 100.79 105.341C100.131 104.934 99.5306 104.431 98.8759 103.952C94.0479 110.079 91.285 116.698 90.7166 124.35H104.348ZM150.087 124.289H163.884C163.201 116.562 160.477 109.881 155.714 104.024C154.03 105.139 152.53 106.161 150.998 107.132C149.983 107.776 148.436 108.125 148.022 109.021C147.609 109.92 148.343 111.324 148.504 112.518C149.048 116.432 149.559 120.357 150.087 124.289ZM113.421 149.21C115.015 152.196 116.238 155.063 117.986 157.567C119.375 159.549 121.246 161.305 123.199 162.762C125.538 164.503 128.286 164.564 130.866 163.107C136.316 160.02 138.658 154.725 140.842 149.116C131.693 146.447 122.814 146.439 113.421 149.21ZM113.741 105.467C122.911 108.129 131.826 108.158 140.845 105.434C139.198 100.955 137.24 96.9008 133.916 93.6738C129.596 89.4754 124.951 89.4862 120.648 93.6882C117.335 96.9224 115.367 100.962 113.741 105.467ZM39.5158 152.904H5.6482C5.6482 155.624 5.62661 158.214 5.6554 160.801C5.68058 162.988 6.74186 164.039 8.93639 164.064C11.6418 164.093 14.3471 164.071 17.0525 164.071C23.4598 164.071 29.8635 164.082 36.2672 164.064C38.1775 164.06 39.4043 163.255 39.4798 161.668C39.6094 158.768 39.5158 155.854 39.5158 152.904ZM111.953 143.738C122.368 140.662 132.402 140.766 142.651 143.695C143.248 139.018 143.806 134.679 144.374 130.261H110.19C110.78 134.776 111.349 139.118 111.953 143.738ZM142.626 110.852C132.276 113.878 122.235 113.856 111.928 110.852C111.327 115.529 110.769 119.911 110.201 124.35H144.385C143.795 119.821 143.223 115.436 142.626 110.852ZM90.5079 62.1698V40.6563C90.5043 37.6595 89.6445 36.7853 86.7017 36.7853C74.1713 36.7817 61.6445 36.7817 49.1178 36.7853C46.1318 36.7853 45.2791 37.6271 45.2719 40.6167C45.2647 47.2398 45.2683 53.8594 45.2719 60.4825C45.2755 61.0186 45.3295 61.551 45.3655 62.1698H90.5079ZM45.4158 124.545C45.3511 124.915 45.2827 125.127 45.2827 125.343C45.2791 137.219 45.2611 149.095 45.2935 160.967C45.3007 163.06 46.398 164.06 48.5493 164.064C61.4179 164.078 74.2864 164.078 87.155 164.064C89.4574 164.064 90.4899 163.01 90.5007 160.711C90.5223 157.063 90.5511 153.419 90.4755 149.774C90.4575 148.882 90.2201 147.918 89.8136 147.123C87.709 143.018 86.0937 138.744 85.4965 134.161C85.0864 131.006 84.9245 127.818 84.6475 124.545H45.4158ZM45.3691 118.673C45.772 118.713 46.0922 118.774 46.4088 118.774C59.1118 118.778 71.8149 118.767 84.5143 118.799C85.5109 118.803 85.7303 118.368 86.0289 117.526C87.2413 114.108 88.6048 110.741 89.8675 107.341C90.1661 106.539 90.4791 105.675 90.4791 104.841C90.5187 93.0766 90.5079 81.3161 90.5079 69.552V68.023H45.3691V118.673ZM96.1561 98.2931C96.5375 98.07 96.649 98.0341 96.7209 97.9585C104.028 90.4899 112.852 86.144 123.275 85.1547C124.523 85.036 124.455 84.3057 124.455 83.4459C124.447 58.7521 124.455 34.0583 124.444 9.3645C124.444 6.5368 123.512 5.6518 120.627 5.6482C113.889 5.6446 107.147 5.6482 100.408 5.6482C96.9224 5.6482 96.1561 6.42168 96.1561 9.95091V96.4583V98.2931ZM39.5086 135.722C39.541 135.057 39.5878 134.567 39.5878 134.078C39.5914 98.1744 39.595 62.2705 39.5878 26.3667C39.5878 23.5174 38.6524 22.6072 35.7959 22.6036C27.0682 22.5964 18.3405 22.6 9.61273 22.6036C6.544 22.6036 5.6482 23.4958 5.6482 26.5357C5.6482 62.3317 5.6482 98.124 5.6518 133.916C5.6518 134.499 5.69857 135.082 5.72735 135.722H39.5086ZM97.4548 0H123.311C123.962 0.273416 124.635 0.503661 125.261 0.823846C128.808 2.63343 130.15 5.64101 130.146 9.512C130.114 34.0763 130.132 58.6406 130.121 83.2084C130.121 84.2445 130.031 85.0468 131.556 85.1943C148.828 86.8636 163.287 98.9155 168.029 115.594C168.777 118.224 169.165 120.958 169.719 123.642V130.934C169.619 131.301 169.464 131.661 169.424 132.035C167.59 149.059 155.308 163.463 138.877 168.133C132.866 169.842 126.764 169.658 120.656 169.709C114.194 169.759 107.73 169.673 101.268 169.741C98.3938 169.773 95.6345 169.594 93.3392 167.532C91.195 169.378 88.7631 169.752 86.1368 169.741C73.7108 169.691 61.2812 169.705 48.8515 169.73C46.8045 169.734 44.9374 169.291 43.2033 168.169C42.8292 167.928 42.0413 167.921 41.6744 168.158C39.9403 169.284 38.0768 169.737 36.0262 169.73C27.1329 169.701 18.2397 169.723 9.35011 169.716C3.44648 169.712 0.00359735 166.259 0 160.344C0 115.659 2.303e-07 70.9731 0.00359758 26.2875C0.00359758 20.4163 3.48605 16.9518 9.40048 16.9482C18.1858 16.941 26.9675 16.9446 35.7491 16.9482C41.8614 16.9518 45.2468 20.3551 45.2683 26.5178C45.2755 28.1547 45.2683 29.7916 45.2683 31.2989H90.5079V29.6261C90.5079 22.8302 90.5007 16.038 90.5151 9.24218C90.5151 8.4723 90.5403 7.69163 90.6842 6.93973C91.4181 3.15508 93.9652 1.10805 97.4548 0Z" fill="#9A345E"/>
<path d="M67.7858 48.078C72.3151 48.078 76.8445 48.0852 81.3739 48.0745C83.5648 48.0673 84.8887 46.9556 84.8491 45.1928C84.8095 43.4839 83.5324 42.437 81.4134 42.4334C72.4123 42.4263 63.4111 42.4263 54.4064 42.4334C52.1651 42.437 50.9311 43.4911 50.9671 45.3187C51.0031 47.0779 52.1975 48.0673 54.3668 48.0709C58.8386 48.0852 63.314 48.078 67.7858 48.078ZM90.5081 62.1698H45.3657C45.3297 61.551 45.2721 61.0185 45.2721 60.4825C45.2685 53.8594 45.2613 47.2398 45.2721 40.6167C45.2757 37.6271 46.132 36.7852 49.118 36.7852C61.6447 36.7816 74.1715 36.7816 86.7019 36.7852C89.6447 36.7852 90.5045 37.6595 90.5045 40.6526C90.5081 47.7723 90.5081 54.8883 90.5081 62.1698ZM142.626 110.852C143.223 115.436 143.795 119.821 144.385 124.35H110.201C110.77 119.911 111.331 115.529 111.928 110.852C122.235 113.856 132.276 113.878 142.626 110.852ZM111.953 143.738C111.349 139.118 110.78 134.776 110.19 130.261H144.375C143.806 134.679 143.249 139.018 142.651 143.695C132.402 140.766 122.368 140.662 111.953 143.738ZM39.516 152.904C39.516 155.854 39.6095 158.768 39.48 161.668C39.4045 163.255 38.1777 164.06 36.271 164.064C29.8637 164.082 23.46 164.071 17.0527 164.071C14.3473 164.071 11.642 164.093 8.93658 164.064C6.73846 164.039 5.68077 162.988 5.65559 160.801C5.62681 158.214 5.6484 155.624 5.6484 152.904H39.516ZM113.741 105.467C115.367 100.962 117.335 96.9224 120.649 93.6846C124.951 89.4862 129.596 89.4754 133.917 93.6702C137.241 96.9008 139.198 100.955 140.849 105.434C131.826 108.158 122.912 108.129 113.741 105.467ZM113.421 149.21C122.814 146.439 131.69 146.447 140.842 149.116C138.658 154.725 136.316 160.02 130.866 163.107C128.286 164.564 125.538 164.503 123.199 162.762C121.246 161.305 119.375 159.549 117.986 157.567C116.238 155.063 115.015 152.196 113.421 149.21ZM104.348 124.354H90.7168C91.2852 116.698 94.0481 110.079 98.8761 103.952C99.5308 104.431 100.132 104.934 100.79 105.341C102.477 106.38 104.208 107.345 105.877 108.417C106.248 108.654 106.697 109.241 106.647 109.597C105.935 114.486 105.139 119.364 104.348 124.354ZM90.688 130.225H104.481C105.017 134.226 105.532 138.151 106.071 142.068C106.237 143.259 106.967 144.666 106.553 145.562C106.14 146.454 104.589 146.799 103.578 147.443C102.046 148.415 100.549 149.44 98.8761 150.548C94.0913 144.698 91.3751 138.014 90.688 130.225ZM39.4477 147.058H5.77791V141.565H39.4477V147.058ZM113.277 93.3428C111.547 96.7641 109.942 99.9372 108.219 103.351C106.546 102.308 104.801 101.225 102.801 99.9839C105.996 97.0663 109.385 94.9941 113.277 93.3428ZM112.943 161.423C109.597 159.33 106.248 157.236 102.463 154.872C104.708 153.43 106.427 152.322 108.19 151.188C109.903 154.563 111.525 157.765 113.151 160.967L112.943 161.423ZM96.1635 156.452C99.3797 159.031 102.448 161.499 105.578 164.01C103.251 164.01 100.862 164.15 98.4983 163.96C97.0233 163.841 96.2247 162.668 96.1743 161.168C96.1239 159.628 96.1635 158.085 96.1635 156.452Z" fill="#FCEAEE"/>
<path d="M28.2585 84.9892C28.2585 78.528 28.2693 72.0703 28.2513 65.6091C28.2441 63.2383 27.2872 62.2957 24.9487 62.2633C23.5673 62.2417 22.1894 62.2561 20.8079 62.2597C17.8327 62.2705 16.9513 63.1375 16.9477 66.0947C16.9441 73.6604 16.9477 81.2226 16.9477 88.7847C16.9477 93.8645 16.9333 98.9442 16.9549 104.024C16.9621 106.442 17.9694 107.427 20.3834 107.456C21.7649 107.474 23.1428 107.467 24.5242 107.46C27.4059 107.445 28.2513 106.607 28.2549 103.704C28.2657 97.4656 28.2585 91.2274 28.2585 84.9892ZM33.9211 84.8489C33.9211 90.8137 33.6873 96.7893 33.9859 102.74C34.3168 109.338 30.3415 113.741 23.4629 113.133C22.1462 113.018 20.8115 113.147 19.4876 113.094C14.9691 112.91 11.3679 109.453 11.3355 104.913C11.2528 91.5512 11.2528 78.1862 11.3355 64.8212C11.3643 60.2127 15.0086 56.7626 19.6351 56.6187C21.4555 56.5647 23.2795 56.5827 25.1034 56.6043C30.4422 56.6727 33.8707 60.0832 33.9103 65.4652C33.9571 71.9264 33.9211 78.3877 33.9211 84.8489ZM22.5456 39.5914C25.1898 39.5914 27.834 39.5698 30.4818 39.5986C32.6584 39.6237 33.8492 40.6131 33.8887 42.3507C33.9319 44.1711 32.7123 45.2468 30.4674 45.2576C25.2329 45.2863 19.9985 45.2827 14.764 45.2576C12.6306 45.2468 11.3679 44.1927 11.3139 42.5054C11.2599 40.7642 12.5839 39.6237 14.7748 39.5986C17.365 39.5698 19.9553 39.5914 22.5456 39.5914ZM22.7146 33.918C20.0129 33.918 17.3111 33.9432 14.6129 33.9108C12.5911 33.8892 11.3751 32.8531 11.3175 31.2018C11.2563 29.5145 12.5623 28.2842 14.5949 28.2734C19.9409 28.2374 25.2869 28.241 30.6293 28.2698C32.7231 28.2842 33.9283 29.4174 33.8887 31.1838C33.8492 32.8855 32.6979 33.8856 30.6473 33.9108C28.0031 33.9432 25.3589 33.918 22.7146 33.918ZM110.283 16.941C108.467 16.941 106.65 16.9734 104.833 16.9338C103.045 16.8942 101.804 15.689 101.825 14.1097C101.847 12.5915 103.041 11.3468 104.732 11.3216C108.47 11.264 112.215 11.2568 115.953 11.3252C117.673 11.3576 118.766 12.5807 118.752 14.1709C118.734 15.7754 117.64 16.8798 115.896 16.9266C114.025 16.977 112.15 16.941 110.283 16.941ZM68.0154 141.464C72.5987 141.464 77.1856 141.381 81.7617 141.532C82.6935 141.561 83.9023 142.252 84.4167 143.018C84.8412 143.651 84.7441 145.047 84.3016 145.731C83.8519 146.429 82.7007 147.047 81.8481 147.055C72.5159 147.145 63.1838 147.134 53.8517 147.087C52.0205 147.076 50.9089 145.803 50.97 144.141C51.0312 142.543 52.1249 141.493 53.9344 141.478C58.6293 141.442 63.3241 141.464 68.0154 141.464ZM67.9902 152.771C72.4656 152.771 76.9374 152.764 81.4092 152.775C83.5533 152.782 84.8053 153.8 84.8448 155.509C84.888 157.268 83.5533 158.416 81.3768 158.419C72.3756 158.43 63.3745 158.43 54.3697 158.416C52.2292 158.416 51.0024 157.383 50.9664 155.642C50.9269 153.822 52.1572 152.782 54.4057 152.775C58.9351 152.764 63.4608 152.771 67.9902 152.771ZM67.7851 48.0781C63.3133 48.0781 58.8379 48.0853 54.3661 48.0709C52.1968 48.0673 51.0024 47.0779 50.9664 45.3187C50.9305 43.4911 52.1644 42.4371 54.4057 42.4335C63.4105 42.4263 72.4116 42.4263 81.4128 42.4335C83.5317 42.4371 84.8089 43.4839 84.8484 45.1928C84.888 46.9556 83.5641 48.0673 81.3732 48.0745C76.8438 48.0853 72.3145 48.0781 67.7851 48.0781Z" fill="#9A345E"/>
<path d="M28.2588 84.9892C28.2588 91.2274 28.266 97.4656 28.2553 103.704C28.2517 106.607 27.4062 107.445 24.5246 107.46C23.1431 107.467 21.7616 107.474 20.3837 107.456C17.9698 107.427 16.9624 106.442 16.9553 104.024C16.9337 98.9442 16.9481 93.8644 16.9481 88.7847C16.9481 81.2226 16.9445 73.6604 16.9481 66.0947C16.9517 63.1375 17.8331 62.2705 20.8083 62.2597C22.1897 62.2561 23.5676 62.2417 24.9491 62.2633C27.2875 62.2957 28.2445 63.2383 28.2517 65.6091C28.2732 72.0703 28.2588 78.528 28.2588 84.9892Z" fill="#FCEAEE"/>
</svg>
