<svg width="137" height="28" viewBox="0 0 137 28" fill="none" xmlns="http://www.w3.org/2000/svg">
<path d="M24.4017 26.4114H16.5371V7.30203H8.62044V26.4114H0.755859V0.958282H24.4017V26.4114ZM47.959 13.6875C47.959 11.8489 47.3652 10.3281 46.1621 9.11975C45.0111 7.95308 43.5892 7.36975 41.8913 7.36975C40.2038 7.36975 38.7715 7.95308 37.6048 9.11975C36.4121 10.3281 35.8132 11.8489 35.8132 13.6875C35.8132 15.5208 36.4121 17.0468 37.6048 18.2552C38.7715 19.4166 40.2038 20 41.8913 20C43.5892 20 45.0111 19.4166 46.1621 18.2552C47.3652 17.0468 47.959 15.5208 47.959 13.6875ZM56.1413 13.6875C56.1413 17.4791 54.8913 20.6354 52.3965 23.151C49.7611 25.8229 46.2559 27.1562 41.8913 27.1562C37.5319 27.1562 34.0267 25.8229 31.3757 23.151C28.8809 20.6354 27.6309 17.4791 27.6309 13.6875C27.6309 9.89059 28.8809 6.73955 31.3757 4.21872C34.0267 1.55205 37.5319 0.213501 41.8913 0.213501C46.2559 0.213501 49.7611 1.55205 52.3965 4.21872C54.8913 6.73955 56.1413 9.89059 56.1413 13.6875ZM84.1517 26.4114H76.3184V12.1041L66.8392 26.4114H59.3704V0.927032H67.1725V15.4635L76.735 0.927032H84.1517V26.4114ZM107.516 25.802C105.24 26.7083 103.126 27.1562 101.167 27.1562C97.1621 27.1562 93.8757 25.8958 91.2923 23.375C88.709 20.8489 87.4173 17.6198 87.4173 13.6823C87.4173 9.67183 88.8184 6.38539 91.6204 3.82809C94.2611 1.42184 97.4173 0.218719 101.1 0.218719C103.318 0.218719 105.459 0.687449 107.516 1.63016V9.53122C105.943 7.9583 104.032 7.17184 101.777 7.17184C99.9069 7.17184 98.3913 7.83329 97.2246 9.151C96.1152 10.4062 95.5579 11.9583 95.5579 13.8177C95.5579 15.6666 96.1465 17.1875 97.3184 18.3906C98.485 19.5989 99.9746 20.1979 101.777 20.1979C104.094 20.1979 106.006 19.4427 107.516 17.9427V25.802ZM136.089 26.4114H126.574L119.235 15.1041V26.4114H111.376V0.958282H119.235V11.625L126.475 0.958282H135.48L126.475 13.2395L136.089 26.4114Z" fill="#9A345E"/>
</svg>
