<svg width="27" height="16" viewBox="0 0 27 16" fill="none" xmlns="http://www.w3.org/2000/svg">
<path d="M0.0248478 12.8203C0.173407 12.0501 0.652395 11.5092 1.1914 10.9781C4.55511 7.61185 7.9188 4.23555 11.2725 0.869265C12.1309 0.00765674 13.2205 -0.214382 14.2214 0.293745C14.4717 0.423277 14.722 0.602808 14.9224 0.802434C18.4489 4.29584 21.9755 7.80925 25.5021 11.3227C26.2034 12.0213 26.465 12.8609 26.1868 13.8314C25.9184 14.7119 25.3195 15.293 24.4199 15.5147C23.5903 15.7262 22.85 15.5276 22.1989 14.9688C22.1088 14.889 22.0286 14.8092 21.9384 14.7193C19.0831 11.8747 16.2178 9.03002 13.3624 6.17536C13.2923 6.10549 13.2522 6.02557 13.182 5.9357C13.0722 6.03591 13.0023 6.09604 12.9424 6.16615C10.0578 9.06155 7.17325 11.957 4.28864 14.8424C3.36038 15.7741 2.01059 15.8866 1.00917 15.1285C0.528477 14.7594 0.227581 14.28 0.0864772 13.6902C0.0763837 13.6402 0.0462888 13.5903 0.0261953 13.5403C0.0257461 13.3003 0.025297 13.0603 0.0248478 12.8203Z" fill="#9A345E"/>
</svg>
