<svg width="27" height="16" viewBox="0 0 27 16" fill="none" xmlns="http://www.w3.org/2000/svg">
<path d="M26.2707 3.02517C26.1207 3.79517 25.6407 4.33517 25.1007 4.86517C21.7307 8.22517 18.3607 11.5952 15.0007 14.9552C14.1407 15.8152 13.0507 16.0352 12.0507 15.5252C11.8007 15.3952 11.5507 15.2152 11.3507 15.0152C7.8307 11.5152 4.3107 7.99517 0.790697 4.47517C0.0906975 3.77517 -0.169303 2.93517 0.110697 1.96517C0.380697 1.08517 0.980698 0.505175 1.8807 0.285175C2.7107 0.0751747 3.4507 0.275175 4.1007 0.835175C4.1907 0.915175 4.2707 0.995175 4.3607 1.08517C7.2107 3.93517 10.0707 6.78517 12.9207 9.64517C12.9907 9.71517 13.0307 9.79517 13.1007 9.88517C13.2107 9.78517 13.2807 9.72517 13.3407 9.65517C16.2307 6.76517 19.1207 3.87517 22.0107 0.995175C22.9407 0.0651747 24.2907 -0.0448253 25.2907 0.715175C25.7707 1.08517 26.0707 1.56517 26.2107 2.15517C26.2207 2.20517 26.2507 2.25517 26.2707 2.30517C26.2707 2.54517 26.2707 2.78517 26.2707 3.02517Z" fill="#9A345E"/>
</svg>
