<svg width="531" height="383" viewBox="0 0 531 383" fill="none" xmlns="http://www.w3.org/2000/svg">
<path d="M455.807 383H75.1925C33.6616 383 0 349.349 0 307.831V75.7517C0 34.2379 33.6616 0.582581 75.1925 0.582581H455.807C497.334 0.582581 531 34.2379 531 75.7517V307.831C531 349.349 497.334 383 455.807 383Z" fill="#9A345E"/>
<path d="M427.238 165.691C426.312 165.569 425.826 165.446 425.344 165.446C398.901 165.433 372.459 165.399 346.016 165.531C344.803 165.535 343.145 166.778 342.468 167.907C339.5 172.838 335.613 176.673 330.184 178.597C328.01 179.367 327.321 180.412 327.325 182.661C327.384 226.818 327.388 270.975 327.317 315.132C327.312 317.475 328.226 318.355 330.26 319.099C335.41 320.981 339.504 324.364 341.978 329.261C343.242 331.76 344.879 332.17 347.348 332.162C376.058 332.098 404.767 332.119 433.476 332.119H437.591C437.591 327.189 437.684 322.668 437.51 318.16C437.476 317.234 436.605 316.156 435.836 315.466C424.439 305.254 424.371 289.54 435.578 279.289C436.686 278.278 437.468 276.363 437.514 274.84C437.726 268.286 437.751 261.718 437.502 255.168C437.443 253.553 436.504 251.557 435.307 250.466C424.498 240.596 424.566 224.547 435.493 214.728C436.55 213.781 437.472 212.081 437.51 210.702C437.713 203.645 437.646 196.574 437.561 189.512C437.548 188.48 437.256 187.051 436.55 186.493C429.928 181.228 427.052 174.301 427.238 165.691ZM393.231 39.5804C392.448 39.8638 391.869 40.0329 391.319 40.274C368.133 50.6091 344.929 60.9147 321.798 71.3851C320.191 72.1125 318.698 73.9055 317.937 75.5632C314.402 83.2469 309.361 89.4843 301.817 93.4678C294.704 97.2188 286.2 96.8932 281.68 92.3092C279.679 90.2793 278.225 90.2709 275.865 91.3069C229.259 111.766 182.62 132.153 135.998 152.569C135.025 152.992 134.116 153.559 132.162 154.595H137.351C191.467 154.595 245.583 154.658 299.698 154.489C304.426 154.477 307.293 156.312 309.475 160.063C310.046 161.04 310.52 162.076 311.108 163.044C313.522 167.015 317.036 169.04 321.709 169.133C327.604 169.256 331.41 166.169 333.897 161.179C336.218 156.511 339.588 154.54 345.035 154.671C359.624 155.026 374.231 154.794 388.828 154.794H392.076C394.021 149.859 394.749 144.733 397.607 141.49C402.602 135.819 402.733 129.607 402.487 122.934C402.39 120.287 402.373 117.631 402.504 114.992C402.602 112.937 402.124 111.614 400.132 110.468C395.929 108.057 393.886 104.036 393.328 99.2782C392.617 93.2649 393.708 87.2684 397.459 82.8028C402.399 76.9206 402.919 70.5098 402.5 63.5196C402.335 60.754 402.555 57.9672 402.42 55.2016C402.382 54.3178 402.01 53.0195 401.375 52.6685C396.275 49.8437 394.165 45.1794 393.231 39.5804ZM72.6169 165.839C72.6169 170.127 72.7141 173.772 72.583 177.409C72.4985 179.815 73.1074 181.515 75.0315 183.275C85.4216 192.777 85.0537 208.905 74.5748 218.458C73.5387 219.401 72.7437 221.148 72.7057 222.543C72.5111 229.351 72.4985 236.168 72.7099 242.972C72.7564 244.495 73.5895 246.364 74.689 247.421C85.3159 257.617 85.3032 272.857 74.6636 282.951C73.5641 283.991 72.7649 285.878 72.7099 287.408C72.4858 293.329 72.7987 299.27 72.5492 305.186C72.397 308.819 73.5853 311.276 75.9745 314.126C78.8332 317.538 80.3767 322.127 82.1401 326.347C82.8801 328.115 82.7321 330.254 83.007 332.343C83.7766 332.415 84.3898 332.521 84.9987 332.521C155.746 332.529 226.494 332.542 297.241 332.432C298.48 332.432 300.202 331.261 300.87 330.14C303.936 324.964 307.94 320.938 313.674 318.972C315.785 318.249 316.161 317.061 316.161 315.065C316.114 270.916 316.11 226.772 316.178 182.628C316.178 180.336 315.15 179.655 313.37 178.504C309.332 175.895 305.149 173.075 302.155 169.413C299.939 166.706 298.049 165.772 294.759 165.776C236.981 165.86 179.199 165.835 121.417 165.839H72.6169ZM448.522 340.196C446.078 342.683 443.134 343.271 439.684 343.262C408.332 343.152 376.975 343.025 345.623 343.342C339.343 343.41 335.745 340.97 333.152 335.764C330.712 330.863 326.953 328.03 321.164 328.237C317.019 328.385 313.996 330.276 311.602 333.434C310.845 334.428 310.232 335.553 309.678 336.678C307.522 341.084 304.295 342.915 299.149 342.898C245.633 342.734 192.118 342.797 138.603 342.797C118.457 342.797 98.3067 342.805 78.1608 342.793C70.6632 342.788 68.9294 340.429 71.0945 333.282C72.748 327.823 70.9507 322.372 65.8677 319.133C62.7046 317.116 61.5755 314.646 61.6432 310.992C61.8123 301.532 61.7573 292.068 61.6643 282.609C61.6347 279.653 62.7469 277.627 65.1869 276.003C73.9785 270.159 74.042 260.395 65.2841 254.36C62.7384 252.605 61.6263 250.516 61.6601 247.429C61.7658 237.593 61.7743 227.749 61.6559 217.908C61.6178 214.644 62.8568 212.542 65.6055 210.795C73.5641 205.738 73.894 195.331 66.1045 189.99C62.768 187.706 61.4994 185.127 61.6347 181.202C61.8673 174.648 61.6728 168.085 61.7108 161.522C61.7404 156.561 63.618 154.629 68.5234 154.612C78.7232 154.57 88.9231 154.718 99.1187 154.519C101.922 154.464 104.912 153.931 107.466 152.819C163.265 128.516 219.013 104.103 274.774 79.7116C281.388 76.8149 282.957 77.3815 287.714 82.8113C288.818 84.0715 291.511 84.9045 293.169 84.5409C299.373 83.1834 303.817 78.9631 306.058 73.2923C308.981 65.9173 314.03 61.8873 321.248 58.8891C346.325 48.4651 371.156 37.4576 396.051 26.5896C398.791 25.3929 401.303 24.729 403.743 26.9237C406.158 29.1015 405.346 31.6346 404.53 34.2564C402.716 40.109 403.756 41.5511 409.093 43.7712C410.848 44.4985 412.844 47.1627 412.916 49.0149C413.292 58.7157 413.216 68.4377 412.971 78.147C412.928 79.9315 411.436 81.7076 410.522 83.4372C408.484 87.2896 405.904 90.939 404.454 94.9987C402.957 99.2063 404.479 101.135 408.902 102.213C411.939 102.953 413.465 104.928 413.495 107.871C413.588 117.458 413.66 127.053 413.398 136.631C413.351 138.382 411.973 140.327 410.729 141.773C407.562 145.461 404.881 149.3 404.162 154.794C408.839 154.794 413.317 154.789 417.796 154.794C423.086 154.794 428.376 154.701 433.662 154.827C438.605 154.946 440.788 158.008 439.447 162.63C437.121 170.622 438.521 174.479 445.435 179.363C446.534 180.141 447.499 181.105 448.522 181.985V218.318C446.978 219.752 445.558 221.351 443.87 222.577C436.394 228.019 436.385 237.965 443.904 243.366C445.507 244.52 446.987 245.844 448.522 247.087V283.421C447.059 284.748 445.714 286.254 444.103 287.379C436.398 292.745 436.318 302.991 443.968 308.392C445.574 309.529 447.008 310.916 448.522 312.189V340.196Z" fill="#E6A6CA"/>
<mask id="mask0_86_52" style="mask-type:luminance" maskUnits="userSpaceOnUse" x="437" y="283" width="13" height="30">
<path d="M437.629 283.133H449.537V312.362H437.629V283.133Z" fill="white"/>
</mask>
<g mask="url(#mask0_86_52)">
<mask id="mask1_86_52" style="mask-type:luminance" maskUnits="userSpaceOnUse" x="438" y="283" width="11" height="30">
<path d="M444.103 287.379C436.398 292.749 436.318 302.991 443.968 308.392C445.575 309.529 447.008 310.916 448.522 312.189V283.421C447.059 284.748 445.714 286.258 444.103 287.379Z" fill="white"/>
</mask>
<g mask="url(#mask1_86_52)">
<path d="M436.317 283.421V312.189H448.522V283.421H436.317Z" fill="url(#paint0_linear_86_52)"/>
</g>
</g>
<mask id="mask2_86_52" style="mask-type:luminance" maskUnits="userSpaceOnUse" x="437" y="218" width="13" height="30">
<path d="M437.629 218.179H449.537V247.408H437.629V218.179Z" fill="white"/>
</mask>
<g mask="url(#mask2_86_52)">
<mask id="mask3_86_52" style="mask-type:luminance" maskUnits="userSpaceOnUse" x="438" y="218" width="11" height="30">
<path d="M443.87 222.577C436.393 228.019 436.385 237.965 443.904 243.365C445.507 244.52 446.987 245.844 448.522 247.087V218.323C446.978 219.748 445.557 221.35 443.87 222.577Z" fill="white"/>
</mask>
<g mask="url(#mask3_86_52)">
<path d="M436.385 218.323V247.087H448.521V218.323H436.385Z" fill="url(#paint1_linear_86_52)"/>
</g>
</g>
<mask id="mask4_86_52" style="mask-type:luminance" maskUnits="userSpaceOnUse" x="71" y="165" width="246" height="168">
<path d="M71.7197 165.133H316.38V332.931H71.7197V165.133Z" fill="white"/>
</mask>
<g mask="url(#mask4_86_52)">
<mask id="mask5_86_52" style="mask-type:luminance" maskUnits="userSpaceOnUse" x="72" y="165" width="245" height="168">
<path d="M294.759 165.776C248.107 165.843 201.455 165.839 154.799 165.839H72.6167C72.6167 170.127 72.7098 173.772 72.5829 177.409C72.4983 179.811 73.1073 181.515 75.0314 183.274C85.4215 192.777 85.0536 208.905 74.5747 218.458C73.5429 219.401 72.7436 221.147 72.7056 222.543C72.511 229.347 72.4983 236.168 72.7098 242.972C72.7563 244.495 73.5894 246.364 74.6889 247.421C85.3158 257.616 85.3031 272.857 74.6635 282.951C73.564 283.996 72.7648 285.877 72.7098 287.408C72.4857 293.329 72.7986 299.266 72.5491 305.186C72.3969 308.819 73.5894 311.276 75.9744 314.126C78.8331 317.538 80.3723 322.127 82.14 326.347C82.88 328.115 82.7362 330.254 83.0069 332.348C83.7807 332.415 84.3897 332.521 84.9986 332.521C155.746 332.529 226.494 332.542 297.241 332.432C298.48 332.432 300.206 331.265 300.87 330.144C303.935 324.964 307.94 320.938 313.67 318.972C315.785 318.249 316.165 317.061 316.161 315.065C316.114 270.92 316.106 226.772 316.178 182.627C316.178 180.335 315.15 179.655 313.37 178.504C309.331 175.895 305.149 173.079 302.155 169.413C299.948 166.715 298.057 165.776 294.784 165.776H294.759ZM287.862 192.743C289.613 194.054 291.621 195.686 292.289 197.619C293.127 200.042 291.592 202.346 289.025 203.23C287.532 203.75 285.828 203.818 284.221 203.818C224.329 203.848 164.432 203.848 104.54 203.826C103.047 203.826 101.482 203.822 100.074 203.399C97.3128 202.57 96.0484 200.477 96.2895 197.614C96.5348 194.705 98.2897 193.077 101.093 192.629C102.197 192.451 103.352 192.557 104.485 192.557H194.702C224.523 192.557 254.345 192.557 284.166 192.561C285.422 192.561 287.042 192.13 287.862 192.743ZM101.089 237.225C98.2559 236.819 96.5474 235.141 96.2937 232.248C96.0442 229.377 97.3086 227.296 100.087 226.484C101.499 226.07 103.06 226.044 104.553 226.044C164.445 226.023 224.337 226.023 284.225 226.053C285.836 226.053 287.54 226.129 289.037 226.649C291.596 227.541 292.7 229.647 292.425 232.32C292.15 235.014 290.564 236.701 287.921 237.187C286.699 237.411 285.409 237.301 284.153 237.301C254.209 237.306 224.261 237.301 194.317 237.301C164.496 237.301 134.678 237.306 104.857 237.301C104.185 237.301 103.508 237.331 102.836 237.331C102.248 237.331 101.664 237.31 101.089 237.225ZM101.115 271.187C98.0064 270.59 96.1922 268.704 96.2726 265.427C96.3529 262.306 98.2094 260.61 101.136 260.069C102.235 259.866 103.394 259.985 104.527 259.985C164.419 259.98 224.312 259.98 284.208 259.985C285.337 259.985 286.496 259.883 287.595 260.073C290.564 260.589 292.395 262.412 292.459 265.448C292.53 268.658 290.721 270.633 287.57 271.187C286.348 271.402 285.062 271.28 283.802 271.28C253.985 271.284 224.164 271.284 194.342 271.284C164.521 271.284 134.7 271.284 104.878 271.28C104.197 271.28 103.508 271.322 102.827 271.322C102.248 271.322 101.673 271.292 101.115 271.187ZM287.693 294.039C290.556 294.441 292.234 296.217 292.442 299.067C292.649 301.888 291.346 304.006 288.555 304.793C287.135 305.19 285.578 305.22 284.086 305.22C224.316 305.241 164.551 305.237 104.785 305.233C103.529 305.233 102.239 305.313 101.026 305.068C97.9218 304.429 96.1034 302.518 96.2853 299.236C96.4671 295.972 98.387 294.238 101.605 293.98C102.857 293.883 104.117 293.929 105.377 293.929C135.072 293.925 164.766 293.925 194.461 293.925C224.155 293.925 253.85 293.925 283.544 293.929C284.931 293.929 286.331 293.849 287.693 294.039Z" fill="white"/>
</mask>
<g mask="url(#mask5_86_52)">
<path d="M72.3965 165.776V332.542H316.177V165.776H72.3965Z" fill="url(#paint2_linear_86_52)"/>
</g>
</g>
<mask id="mask6_86_52" style="mask-type:luminance" maskUnits="userSpaceOnUse" x="131" y="39" width="272" height="131">
<path d="M131.262 39.5551H402.987V169.463H131.262V39.5551Z" fill="white"/>
</mask>
<g mask="url(#mask6_86_52)">
<mask id="mask7_86_52" style="mask-type:luminance" maskUnits="userSpaceOnUse" x="132" y="39" width="271" height="131">
<path d="M391.319 40.274C368.133 50.6133 344.93 60.9147 321.798 71.3851C320.191 72.1125 318.698 73.9055 317.937 75.5632C314.402 83.2469 309.361 89.4843 301.817 93.4678C294.704 97.2188 286.196 96.8932 281.675 92.3092C279.679 90.2793 278.225 90.2709 275.861 91.3069C229.26 111.766 182.62 132.153 135.994 152.569C135.025 152.992 134.116 153.555 132.158 154.595H137.347C191.467 154.595 245.583 154.654 299.698 154.493C304.422 154.477 307.293 156.312 309.475 160.063C310.046 161.04 310.52 162.076 311.108 163.044C313.522 167.015 317.036 169.036 321.709 169.133C327.6 169.256 331.41 166.173 333.897 161.179C336.218 156.511 339.589 154.54 345.035 154.671C359.625 155.026 374.231 154.794 388.829 154.794H392.076C394.021 149.859 394.753 144.733 397.607 141.49C402.602 135.819 402.733 129.607 402.487 122.934C402.39 120.287 402.373 117.631 402.504 114.992C402.606 112.937 402.124 111.614 400.132 110.472C395.929 108.053 393.886 104.036 393.328 99.2782C392.618 93.2649 393.709 87.2727 397.459 82.8028C402.394 76.9206 402.919 70.5098 402.5 63.5196C402.335 60.754 402.555 57.9672 402.424 55.2016C402.382 54.3178 402.014 53.0195 401.375 52.6685C396.275 49.8479 394.165 45.1794 393.231 39.5804C392.453 39.8638 391.869 40.0329 391.319 40.274Z" fill="white"/>
</mask>
<g mask="url(#mask7_86_52)">
<path d="M132.158 39.5804V169.256H402.919V39.5804H132.158Z" fill="url(#paint3_linear_86_52)"/>
</g>
</g>
<mask id="mask8_86_52" style="mask-type:luminance" maskUnits="userSpaceOnUse" x="327" y="165" width="112" height="168">
<path d="M327.206 165.133H438.711V332.931H327.206V165.133Z" fill="white"/>
</mask>
<g mask="url(#mask8_86_52)">
<mask id="mask9_86_52" style="mask-type:luminance" maskUnits="userSpaceOnUse" x="327" y="165" width="111" height="168">
<path d="M346.016 165.53C344.802 165.535 343.145 166.778 342.468 167.907C339.5 172.838 335.613 176.669 330.184 178.593C328.01 179.363 327.321 180.412 327.325 182.657C327.384 226.814 327.388 270.975 327.316 315.132C327.312 317.475 328.226 318.355 330.26 319.099C335.41 320.981 339.504 324.368 341.978 329.261C343.242 331.76 344.879 332.17 347.348 332.162C376.057 332.098 404.767 332.123 433.476 332.123H437.59C437.59 327.188 437.683 322.668 437.51 318.16C437.476 317.234 436.605 316.156 435.835 315.466C424.439 305.254 424.371 289.54 435.578 279.289C436.685 278.278 437.468 276.363 437.514 274.84C437.726 268.286 437.751 261.718 437.506 255.168C437.442 253.553 436.504 251.557 435.307 250.461C424.498 240.596 424.566 224.547 435.493 214.728C436.55 213.781 437.472 212.081 437.51 210.702C437.713 203.645 437.645 196.578 437.561 189.512C437.548 188.48 437.256 187.051 436.55 186.493C429.928 181.228 427.052 174.305 427.238 165.691C426.312 165.569 425.826 165.446 425.344 165.446C414.835 165.437 404.323 165.433 393.814 165.433C377.884 165.433 361.95 165.45 346.016 165.53ZM416.751 192.565C421.343 192.574 423.716 194.51 423.712 198.134C423.712 201.733 421.267 203.822 416.785 203.831C393.751 203.856 370.716 203.86 347.686 203.826C343.339 203.822 340.781 201.522 340.882 197.978C340.975 194.557 343.394 192.578 347.653 192.565C359.231 192.54 370.809 192.557 382.392 192.557C393.844 192.557 405.299 192.54 416.751 192.565ZM348.029 237.297C343.437 237.293 340.997 235.42 340.887 231.889C340.768 228.252 343.398 226.044 348.071 226.04C370.974 226.015 393.882 226.011 416.785 226.044C421.563 226.053 424.147 228.577 423.665 232.493C423.28 235.61 421.085 237.28 417.123 237.293C405.545 237.323 393.966 237.301 382.388 237.301C375.744 237.301 369.101 237.306 362.458 237.306C357.645 237.306 352.837 237.306 348.029 237.297ZM347.928 271.275C343.458 271.271 340.92 269.216 340.865 265.698C340.81 262.162 343.369 260.006 347.784 259.993C359.362 259.963 370.945 259.985 382.523 259.985C393.852 259.98 405.177 259.968 416.506 259.989C421.28 259.997 423.788 262.031 423.712 265.744C423.64 269.318 421.212 271.271 416.649 271.275C405.198 271.284 393.742 271.288 382.291 271.288C370.835 271.288 359.383 271.284 347.928 271.275ZM348.147 305.224C342.95 305.22 340.125 302.433 341.056 298.319C341.838 294.851 344.346 293.904 347.572 293.912C359.151 293.95 370.729 293.929 382.308 293.929C393.636 293.929 404.961 293.912 416.29 293.933C421.284 293.942 423.665 295.735 423.712 299.435C423.758 303.152 421.263 305.22 416.485 305.224C404.987 305.237 393.493 305.245 381.995 305.245C370.712 305.245 359.426 305.241 348.147 305.224Z" fill="white"/>
</mask>
<g mask="url(#mask9_86_52)">
<path d="M327.312 165.433V332.17H437.751V165.433H327.312Z" fill="url(#paint4_linear_86_52)"/>
</g>
</g>
<path d="M194.461 293.925C224.155 293.925 253.85 293.925 283.545 293.929C284.932 293.929 286.331 293.849 287.693 294.039C290.556 294.441 292.235 296.217 292.446 299.067C292.649 301.888 291.347 304.006 288.556 304.793C287.135 305.19 285.579 305.22 284.086 305.22C224.316 305.241 164.551 305.237 104.785 305.233C103.529 305.233 102.24 305.317 101.026 305.064C97.922 304.429 96.1036 302.518 96.2855 299.236C96.4673 295.972 98.3872 294.238 101.605 293.98C102.857 293.883 104.121 293.925 105.377 293.925H194.461ZM194.317 237.301C164.496 237.301 134.679 237.306 104.857 237.301C103.601 237.301 102.32 237.403 101.089 237.225C98.2561 236.819 96.5476 235.141 96.2939 232.248C96.0444 229.377 97.3088 227.296 100.087 226.484C101.5 226.07 103.06 226.044 104.553 226.044C164.445 226.023 224.337 226.023 284.225 226.053C285.837 226.053 287.541 226.129 289.038 226.649C291.592 227.537 292.7 229.652 292.425 232.32C292.15 235.014 290.564 236.701 287.921 237.187C286.699 237.411 285.409 237.301 284.153 237.301C254.209 237.306 224.261 237.301 194.317 237.301ZM194.702 192.557C224.523 192.557 254.345 192.557 284.166 192.561C285.422 192.561 287.042 192.13 287.862 192.743C289.613 194.054 291.621 195.686 292.29 197.619C293.127 200.042 291.592 202.346 289.029 203.23C287.532 203.75 285.832 203.818 284.221 203.818C224.325 203.848 164.432 203.848 104.54 203.826C103.047 203.826 101.483 203.822 100.074 203.399C97.3131 202.57 96.0487 200.477 96.2897 197.614C96.535 194.705 98.2899 193.077 101.094 192.629C102.202 192.451 103.352 192.557 104.485 192.557H194.702ZM194.343 271.284C164.521 271.284 134.7 271.284 104.878 271.28C103.622 271.28 102.333 271.415 101.115 271.183C98.0066 270.59 96.1924 268.704 96.2728 265.427C96.3489 262.311 98.2096 260.611 101.136 260.069C102.235 259.866 103.394 259.985 104.523 259.985H284.208C285.338 259.985 286.496 259.883 287.596 260.073C290.564 260.589 292.395 262.412 292.463 265.448C292.526 268.658 290.721 270.633 287.57 271.187C286.348 271.402 285.063 271.28 283.807 271.28C253.985 271.284 224.164 271.284 194.343 271.284ZM382.388 237.301C370.937 237.301 359.481 237.314 348.029 237.297C343.437 237.293 340.997 235.42 340.887 231.889C340.768 228.252 343.399 226.044 348.072 226.04C370.975 226.015 393.878 226.011 416.785 226.044C421.564 226.053 424.147 228.578 423.665 232.493C423.28 235.61 421.086 237.28 417.123 237.293C405.545 237.323 393.967 237.301 382.388 237.301ZM382.308 293.925C393.637 293.925 404.966 293.912 416.29 293.933C421.289 293.942 423.665 295.735 423.708 299.435C423.754 303.152 421.263 305.22 416.485 305.224C393.704 305.25 370.924 305.254 348.143 305.224C342.95 305.22 340.126 302.433 341.056 298.319C341.838 294.851 344.346 293.904 347.573 293.912C359.151 293.95 370.729 293.929 382.308 293.925ZM382.523 259.98C393.852 259.98 405.177 259.968 416.506 259.989C421.28 259.997 423.788 262.031 423.712 265.74C423.64 269.318 421.213 271.271 416.65 271.276C393.742 271.292 370.835 271.292 347.928 271.276C343.458 271.271 340.921 269.216 340.866 265.698C340.811 262.163 343.369 260.006 347.784 259.993C359.362 259.964 370.945 259.985 382.523 259.98ZM382.392 192.557C393.844 192.557 405.3 192.54 416.751 192.565C421.344 192.574 423.716 194.51 423.716 198.134C423.712 201.733 421.268 203.822 416.785 203.831C393.751 203.856 370.721 203.86 347.687 203.826C343.344 203.822 340.781 201.522 340.878 197.978C340.976 194.557 343.395 192.578 347.653 192.565C359.231 192.54 370.814 192.557 382.392 192.557Z" fill="#E6A6CA"/>
<defs>
<linearGradient id="paint0_linear_86_52" x1="436.318" y1="297.805" x2="448.523" y2="297.805" gradientUnits="userSpaceOnUse">
<stop stop-color="#FCEAEE"/>
<stop offset="0.25" stop-color="#FCEAEE"/>
<stop offset="0.265625" stop-color="#FCEAEE"/>
<stop offset="0.28125" stop-color="#FCEBEF"/>
<stop offset="0.296875" stop-color="#FCECEF"/>
<stop offset="0.3125" stop-color="#FCEDF0"/>
<stop offset="0.328125" stop-color="#FDEDF0"/>
<stop offset="0.34375" stop-color="#FDEEF1"/>
<stop offset="0.359375" stop-color="#FDEFF2"/>
<stop offset="0.375" stop-color="#FDEFF2"/>
<stop offset="0.390625" stop-color="#FDF0F3"/>
<stop offset="0.40625" stop-color="#FDF1F3"/>
<stop offset="0.421875" stop-color="#FDF1F3"/>
<stop offset="0.4375" stop-color="#FDF2F4"/>
<stop offset="0.453125" stop-color="#FEF2F4"/>
<stop offset="0.46875" stop-color="#FEF3F5"/>
<stop offset="0.484375" stop-color="#FEF3F5"/>
<stop offset="0.5" stop-color="#FEF4F6"/>
<stop offset="0.53125" stop-color="#FEF5F6"/>
<stop offset="0.5625" stop-color="#FEF6F7"/>
<stop offset="0.59375" stop-color="#FEF6F7"/>
<stop offset="0.625" stop-color="#FEF7F8"/>
<stop offset="0.65625" stop-color="#FFF8F8"/>
<stop offset="0.6875" stop-color="#FFF8F9"/>
<stop offset="0.75" stop-color="#FFF9F9"/>
<stop offset="1" stop-color="#FFFAFA"/>
</linearGradient>
<linearGradient id="paint1_linear_86_52" x1="436.386" y1="232.704" x2="448.523" y2="232.704" gradientUnits="userSpaceOnUse">
<stop stop-color="#FCEAEE"/>
<stop offset="0.25" stop-color="#FCEAEE"/>
<stop offset="0.265625" stop-color="#FCEBEE"/>
<stop offset="0.28125" stop-color="#FCEBEF"/>
<stop offset="0.296875" stop-color="#FCECF0"/>
<stop offset="0.3125" stop-color="#FDEDF0"/>
<stop offset="0.328125" stop-color="#FDEEF1"/>
<stop offset="0.34375" stop-color="#FDEEF1"/>
<stop offset="0.359375" stop-color="#FDEFF2"/>
<stop offset="0.375" stop-color="#FDF0F2"/>
<stop offset="0.390625" stop-color="#FDF0F3"/>
<stop offset="0.40625" stop-color="#FDF1F3"/>
<stop offset="0.421875" stop-color="#FDF1F4"/>
<stop offset="0.4375" stop-color="#FDF2F4"/>
<stop offset="0.453125" stop-color="#FEF3F4"/>
<stop offset="0.46875" stop-color="#FEF3F5"/>
<stop offset="0.484375" stop-color="#FEF4F5"/>
<stop offset="0.5" stop-color="#FEF4F6"/>
<stop offset="0.53125" stop-color="#FEF5F6"/>
<stop offset="0.5625" stop-color="#FEF6F7"/>
<stop offset="0.59375" stop-color="#FEF6F7"/>
<stop offset="0.625" stop-color="#FEF7F8"/>
<stop offset="0.65625" stop-color="#FFF8F8"/>
<stop offset="0.6875" stop-color="#FFF8F9"/>
<stop offset="0.75" stop-color="#FFF9F9"/>
<stop offset="1" stop-color="#FFFAFA"/>
</linearGradient>
<linearGradient id="paint2_linear_86_52" x1="72.3954" y1="249.151" x2="316.179" y2="249.151" gradientUnits="userSpaceOnUse">
<stop stop-color="#FCEAEE"/>
<stop offset="0.125" stop-color="#FCEAEE"/>
<stop offset="0.140625" stop-color="#FCEBEF"/>
<stop offset="0.15625" stop-color="#FCECEF"/>
<stop offset="0.171875" stop-color="#FCECF0"/>
<stop offset="0.1875" stop-color="#FDEDF0"/>
<stop offset="0.203125" stop-color="#FDEEF1"/>
<stop offset="0.21875" stop-color="#FDEEF1"/>
<stop offset="0.234375" stop-color="#FDEFF2"/>
<stop offset="0.25" stop-color="#FDEFF2"/>
<stop offset="0.265625" stop-color="#FDF0F2"/>
<stop offset="0.28125" stop-color="#FDF0F3"/>
<stop offset="0.296875" stop-color="#FDF1F3"/>
<stop offset="0.3125" stop-color="#FDF1F4"/>
<stop offset="0.34375" stop-color="#FEF2F4"/>
<stop offset="0.375" stop-color="#FEF3F5"/>
<stop offset="0.40625" stop-color="#FEF4F5"/>
<stop offset="0.4375" stop-color="#FEF5F6"/>
<stop offset="0.46875" stop-color="#FEF5F7"/>
<stop offset="0.5" stop-color="#FEF6F7"/>
<stop offset="0.53125" stop-color="#FEF7F8"/>
<stop offset="0.5625" stop-color="#FFF7F8"/>
<stop offset="0.625" stop-color="#FFF8F9"/>
<stop offset="0.6875" stop-color="#FFF9F9"/>
<stop offset="0.75" stop-color="#FFFAFA"/>
<stop offset="1" stop-color="#FFFAFA"/>
</linearGradient>
<linearGradient id="paint3_linear_86_52" x1="132.16" y1="104.359" x2="402.919" y2="104.359" gradientUnits="userSpaceOnUse">
<stop stop-color="#FCEAEE"/>
<stop offset="0.125" stop-color="#FCEAEE"/>
<stop offset="0.140625" stop-color="#FCEBEF"/>
<stop offset="0.15625" stop-color="#FCECEF"/>
<stop offset="0.171875" stop-color="#FCECF0"/>
<stop offset="0.1875" stop-color="#FDEDF0"/>
<stop offset="0.203125" stop-color="#FDEEF1"/>
<stop offset="0.21875" stop-color="#FDEEF1"/>
<stop offset="0.234375" stop-color="#FDEFF2"/>
<stop offset="0.25" stop-color="#FDEFF2"/>
<stop offset="0.265625" stop-color="#FDF0F2"/>
<stop offset="0.28125" stop-color="#FDF0F3"/>
<stop offset="0.296875" stop-color="#FDF1F3"/>
<stop offset="0.3125" stop-color="#FDF1F4"/>
<stop offset="0.34375" stop-color="#FEF2F4"/>
<stop offset="0.375" stop-color="#FEF3F5"/>
<stop offset="0.40625" stop-color="#FEF4F5"/>
<stop offset="0.4375" stop-color="#FEF5F6"/>
<stop offset="0.46875" stop-color="#FEF5F7"/>
<stop offset="0.5" stop-color="#FEF6F7"/>
<stop offset="0.53125" stop-color="#FEF7F8"/>
<stop offset="0.5625" stop-color="#FFF7F8"/>
<stop offset="0.625" stop-color="#FFF8F9"/>
<stop offset="0.6875" stop-color="#FFF9F9"/>
<stop offset="0.75" stop-color="#FFFAFA"/>
<stop offset="1" stop-color="#FFFAFA"/>
</linearGradient>
<linearGradient id="paint4_linear_86_52" x1="327.312" y1="248.798" x2="437.75" y2="248.798" gradientUnits="userSpaceOnUse">
<stop stop-color="#FCEAEE"/>
<stop offset="0.125" stop-color="#FCEAEE"/>
<stop offset="0.140625" stop-color="#FCEBEF"/>
<stop offset="0.15625" stop-color="#FCECEF"/>
<stop offset="0.171875" stop-color="#FCECF0"/>
<stop offset="0.1875" stop-color="#FDEDF0"/>
<stop offset="0.203125" stop-color="#FDEEF1"/>
<stop offset="0.21875" stop-color="#FDEEF1"/>
<stop offset="0.234375" stop-color="#FDEFF2"/>
<stop offset="0.25" stop-color="#FDEFF2"/>
<stop offset="0.265625" stop-color="#FDF0F2"/>
<stop offset="0.28125" stop-color="#FDF0F3"/>
<stop offset="0.296875" stop-color="#FDF1F3"/>
<stop offset="0.3125" stop-color="#FDF1F4"/>
<stop offset="0.34375" stop-color="#FEF2F4"/>
<stop offset="0.375" stop-color="#FEF3F5"/>
<stop offset="0.40625" stop-color="#FEF4F5"/>
<stop offset="0.4375" stop-color="#FEF5F6"/>
<stop offset="0.46875" stop-color="#FEF5F7"/>
<stop offset="0.5" stop-color="#FEF6F7"/>
<stop offset="0.53125" stop-color="#FEF7F8"/>
<stop offset="0.5625" stop-color="#FFF7F8"/>
<stop offset="0.625" stop-color="#FFF8F9"/>
<stop offset="0.6875" stop-color="#FFF9F9"/>
<stop offset="0.75" stop-color="#FFFAFA"/>
<stop offset="1" stop-color="#FFFAFA"/>
</linearGradient>
</defs>
</svg>
