<svg width="480" height="52" viewBox="0 0 480 52" fill="none" xmlns="http://www.w3.org/2000/svg">
<path d="M24.5625 35.069C24.5625 31.9866 22.4374 30.4494 18.1872 30.4494H15.0969V39.6608H18.3779C22.501 39.6608 24.5625 38.1315 24.5625 35.069ZM39.4939 34.9458C39.4939 40.2129 37.4125 44.1931 33.2457 46.8782C29.7899 49.1066 25.361 50.2228 19.9707 50.2228H0.197266V1.98876H35.339V14.0165H15.0969V20.0145H20.8764C25.8734 20.0145 30.0084 21.0353 33.2775 23.077C37.4205 25.6788 39.4939 29.6351 39.4939 34.9458ZM92.439 50.2228H77.6029V23.1048L59.6408 50.2228H45.4919V1.92918H60.2644V29.4801L78.3854 1.92918H92.439V50.2228ZM125.273 35.069C125.273 31.9866 123.148 30.4494 118.898 30.4494H115.807V39.6608H119.088C123.211 39.6608 125.273 38.1315 125.273 35.069ZM140.204 34.9458C140.204 40.2129 138.123 44.1931 133.956 46.8782C130.5 49.1066 126.071 50.2228 120.681 50.2228H100.908V1.98876H136.049V14.0165H115.807V20.0145H121.587C126.584 20.0145 130.719 21.0353 133.988 23.077C138.131 25.6788 140.204 29.6351 140.204 34.9458ZM187.874 50.2228H172.971V14.0165H163.505V32.4473C163.505 38.4215 162.433 42.8505 160.292 45.7223C157.686 49.202 153.261 50.9378 147.013 50.9378C145.074 50.9378 143.108 50.6796 141.11 50.1593L142.016 37.9448C143.16 38.4453 144.379 38.6956 145.67 38.6956C146.941 38.6956 147.827 38.2149 148.323 37.2576C148.887 36.1931 149.169 34.2269 149.169 31.351V1.98876H187.874V50.2228ZM243.445 50.2228H228.605V23.1048L210.647 50.2228H196.494V1.92918H211.27V29.4801L229.387 1.92918H243.445V50.2228ZM288.116 26.1038C288.116 22.6282 286.98 19.7444 284.708 17.4524C282.523 15.2439 279.826 14.1396 276.62 14.1396C273.411 14.1396 270.706 15.2439 268.497 17.4524C266.225 19.7444 265.093 22.6282 265.093 26.1038C265.093 29.5834 266.225 32.4672 268.497 34.7592C270.706 36.9637 273.411 38.068 276.62 38.068C279.826 38.068 282.523 36.9637 284.708 34.7592C286.98 32.4672 288.116 29.5834 288.116 26.1038ZM303.607 26.1038C303.607 33.2895 301.244 39.2676 296.517 44.0342C291.52 49.0947 284.887 51.625 276.62 51.625C268.35 51.625 261.709 49.0947 256.688 44.0342C251.961 39.2676 249.598 33.2895 249.598 26.1038C249.598 18.9221 251.961 12.944 256.688 8.17343C261.709 3.11289 268.35 0.582615 276.62 0.582615C284.887 0.582615 291.52 3.11289 296.517 8.17343C301.244 12.944 303.607 18.9221 303.607 26.1038ZM339.532 14.2667H329.224V50.2228H314.324V14.2667H303.953V1.98876H339.532V14.2667ZM374.801 50.2228H344.342V1.98876H374.801V14.0165H359.242V20.2965H373.645V31.6648H359.242V38.1951H374.801V50.2228ZM428.778 50.2228H410.753L396.854 28.793V50.2228H381.954V1.98876H396.854V22.1992L410.566 1.98876H427.622L410.566 25.2617L428.778 50.2228Z" fill="#9A345E"/>
<path d="M458.478 30.9856L453.886 15.6451L449.354 30.9856H458.478ZM479.999 50.5684H464.194L461.569 41.5436H446.323L443.702 50.5684H427.896L444.107 2.33833H463.785L479.999 50.5684Z" fill="#9A345E"/>
</svg>
