<svg width="124" height="124" viewBox="0 0 124 124" fill="none" xmlns="http://www.w3.org/2000/svg">
<path d="M120.843 114.037C120.809 111.847 120.122 110.201 118.782 108.852C111.644 101.698 104.503 94.5518 97.3486 87.4143C96.1087 86.1745 95.1537 86.1996 93.8804 87.452C91.8447 89.4668 89.8258 91.4941 87.8068 93.5214C86.1439 95.1968 86.1481 95.9466 87.8403 97.6388C94.7348 104.542 101.638 111.44 108.536 118.339C108.842 118.649 109.152 118.959 109.491 119.219C111.757 120.953 114.25 121.309 116.822 120.098C119.444 118.858 120.73 116.655 120.843 114.037ZM2.49679 45.7206C2.50517 69.6461 21.8525 88.9934 45.7696 88.9976C69.6952 88.9976 89.0509 69.6629 89.0634 45.7457C89.0802 21.749 69.7203 2.39329 45.7236 2.41004C21.8106 2.4268 2.48841 21.7867 2.49679 45.7206ZM90.2111 87.8667C90.8813 87.1379 91.6269 86.2289 92.4772 85.4289C94.4039 83.6194 96.9088 83.5608 98.7811 85.4163C106.141 92.7213 113.517 100.018 120.759 107.44C124.361 111.13 124.072 117.028 120.403 120.567C116.717 124.119 110.987 124.149 107.259 120.488C101.654 114.984 96.138 109.392 90.5839 103.838C88.9587 102.213 87.3126 100.6 85.7083 98.954C83.6098 96.8011 83.614 94.3172 85.7251 92.1726C86.479 91.4061 87.3293 90.7234 88.0121 90.1118C84.2549 86.3504 80.682 82.7775 77.063 79.1543C66.7882 88.4028 54.6077 92.6794 40.6344 91.1338C28.3616 89.7767 18.1874 84.1933 10.3756 74.6264C-5.0302 55.7733 -3.05735 28.7315 14.8114 12.0355C31.9974 -4.01952 59.4079 -3.98182 76.7195 11.9685C94.6427 28.4885 97.2397 57.4362 79.2788 76.9343C82.8559 80.5114 86.4288 84.0844 90.2111 87.8667Z" fill="#9A345E"/>
<path d="M84.7874 2.76607C84.7874 2.84984 84.7832 2.9378 84.7874 3.02157C84.8209 3.98077 84.779 5.04888 83.5517 5.04888C82.3203 5.05307 82.2742 3.99334 82.3035 3.03414C82.3161 2.59852 82.1611 2.08751 82.3412 1.74823C82.6261 1.20789 83.1287 0.78484 83.5434 0.311523C83.958 0.780651 84.4314 1.21627 84.7581 1.73985C84.9131 1.99117 84.7832 2.41841 84.7832 2.76607H84.7874ZM80.0417 7.46153C78.3327 7.46153 77.5159 7.05105 77.6583 6.16724C77.8887 4.77243 79.0364 4.98186 80.0207 4.97767C81.7297 4.97348 82.4669 5.37559 82.4208 6.27196C82.3789 7.11807 81.692 7.46153 80.0417 7.46153ZM86.9948 7.46153C86.865 7.46153 86.7351 7.45735 86.6053 7.46153C85.667 7.50342 84.712 7.35682 84.712 6.21751C84.7078 5.0782 85.667 4.93997 86.6053 4.97348C87.0367 4.99024 87.4723 4.97767 87.9079 4.97767C88.754 4.97767 89.42 5.3337 89.42 6.21751C89.42 7.1055 88.754 7.46153 87.9079 7.45735C87.6022 7.45735 87.3006 7.45735 86.9948 7.46153ZM84.7874 9.70665C84.7581 10.7203 85.0178 12.0858 83.5099 12.069C82.115 12.0523 82.2993 10.7496 82.3077 9.76529C82.3161 8.74745 82.0732 7.38614 83.5811 7.40289C84.9759 7.41546 84.779 8.71813 84.7874 9.70665ZM9.79397 5.01956C9.76465 6.03321 10.0243 7.3987 8.51643 7.38195C7.12162 7.3652 7.30592 6.06253 7.31429 5.07401C7.32267 4.05617 7.07973 2.69486 8.58764 2.71161C9.98246 2.72837 9.78559 4.02685 9.79397 5.01956ZM4.96447 9.80298C4.78854 9.80717 4.61681 9.7988 4.44507 9.80717C3.52357 9.84487 2.67747 9.60193 2.68166 8.55477C2.69003 7.50342 3.54871 7.28561 4.46183 7.31912C4.93933 7.33588 5.41684 7.32331 5.89016 7.32331C6.74045 7.32331 7.40225 7.68353 7.39807 8.57152C7.38969 9.45952 6.7237 9.80717 5.8734 9.80298H4.96447ZM12.081 9.80298C10.3678 9.80717 9.55103 9.3925 9.69763 8.51288C9.92382 7.11388 11.0715 7.32331 12.0558 7.32331C13.7648 7.31493 14.5858 7.72961 14.4392 8.61341C14.2088 10.0082 13.0653 9.79461 12.081 9.80298ZM9.78978 12.1738C9.78978 12.4795 9.90706 12.8649 9.76465 13.0701C9.4128 13.5811 8.94368 14.0084 8.52062 14.4691C8.11851 13.9874 7.55305 13.5644 7.36037 13.0073C7.15931 12.4293 7.15094 11.6627 7.36456 11.0889C7.56561 10.5444 8.1604 10.1506 8.58345 9.68989C8.98556 10.1716 9.4505 10.6156 9.76465 11.1475C9.91544 11.4072 9.79397 11.8303 9.78978 12.1738ZM112.772 23.7135C112.768 23.5417 112.776 23.3658 112.768 23.1941C112.734 22.2726 112.981 21.4265 114.032 21.4432C115.08 21.46 115.293 22.3228 115.256 23.236C115.239 23.7093 115.256 24.1868 115.251 24.6643C115.247 25.5146 114.883 26.1764 113.991 26.1596C113.107 26.1429 112.763 25.4685 112.772 24.6266V23.7135ZM110.451 28.5555C109.458 28.5513 108.181 28.7398 108.16 27.3324C108.139 25.9209 109.412 26.0759 110.409 26.0717C110.757 26.0717 111.18 25.946 111.436 26.101C111.967 26.4235 112.407 26.8885 112.885 27.2948C112.424 27.7136 111.997 28.1953 111.473 28.5262C111.23 28.6812 110.799 28.5513 110.451 28.5555ZM117.455 28.5555C117.279 28.5555 117.107 28.5513 116.935 28.5597C116.014 28.5974 115.163 28.3545 115.172 27.3073C115.18 26.256 116.039 26.0382 116.948 26.0717C117.429 26.0884 117.907 26.0717 118.38 26.0759C119.231 26.0759 119.892 26.4361 119.888 27.3241C119.88 28.2121 119.21 28.5597 118.364 28.5555H117.455ZM115.251 30.9054C115.251 31.0771 115.247 31.253 115.256 31.4248C115.293 32.3421 115.055 33.1924 114.003 33.1882C112.952 33.1798 112.734 32.3211 112.768 31.408C112.784 30.9305 112.772 30.453 112.772 29.9755C112.772 29.1294 113.132 28.4634 114.02 28.4676C114.908 28.4759 115.256 29.1461 115.251 29.9922V30.9054ZM21.3714 98.7949C21.3839 97.8105 21.1703 96.667 22.5609 96.4367C23.4448 96.2901 23.8594 97.111 23.8552 98.82C23.851 99.8043 24.0605 100.952 22.6657 101.178C21.7819 101.325 21.3714 100.508 21.3714 98.7949ZM19.0969 103.566C17.3964 103.566 16.5712 103.143 16.7262 102.259C16.9691 100.872 18.1168 101.086 19.0969 101.082C20.8017 101.078 21.6227 101.501 21.4719 102.385C21.229 103.775 20.0855 103.553 19.0969 103.566ZM26.1883 101.082C26.2763 101.082 26.3642 101.086 26.448 101.082C27.4072 101.048 28.4711 101.09 28.4753 102.318C28.4795 103.549 27.4198 103.595 26.4564 103.566C26.025 103.557 25.5139 103.708 25.1747 103.528C24.6343 103.243 24.2113 102.741 23.738 102.326C24.2071 101.911 24.6427 101.438 25.1663 101.111C25.4176 100.956 25.8448 101.086 26.1883 101.086V101.082ZM23.8552 105.907C23.8552 106.037 23.851 106.167 23.8594 106.297C23.8971 107.239 23.7463 108.194 22.6112 108.19C21.4719 108.186 21.3337 107.227 21.3714 106.288C21.3839 105.857 21.3714 105.425 21.3756 104.99C21.3756 104.14 21.7316 103.474 22.6196 103.478C23.5034 103.482 23.8594 104.148 23.8552 104.998V105.907Z" fill="#E6A6CA"/>
<path d="M47.0029 8.27418C46.8228 9.225 46.0981 9.34648 45.2018 9.46795C41.9095 9.90775 38.5377 10.1172 35.371 11.0219C26.3152 13.6147 19.45 19.1982 14.5535 27.2236C14.3734 27.521 14.2687 27.9608 14.009 28.0865C13.498 28.3294 12.899 28.3964 12.3377 28.5388C12.2162 27.9692 11.8016 27.211 12.0277 26.8676C13.5315 24.5471 14.9849 22.147 16.8112 20.0903C24.3088 11.6502 33.8045 7.36525 45.0677 6.97152C46.3118 6.92963 47.0029 7.39876 47.0029 8.27418ZM10.5659 36.7988C10.3565 37.8795 10.1512 38.6335 10.0675 39.4042C9.86222 41.3812 9.68211 43.3666 9.53969 45.3478C9.48105 46.1856 9.20041 46.8809 8.31661 46.8893C7.35322 46.8976 6.96368 46.1688 7.0642 45.2808C7.37835 42.4912 7.68412 39.6974 8.13231 36.9245C8.20352 36.5056 8.9826 35.9611 9.46848 35.9234C9.84965 35.8941 10.2853 36.5559 10.5659 36.7988Z" fill="#E6A6CA"/>
</svg>
