<svg width="2143" height="96" viewBox="0 0 2143 96" fill="none" xmlns="http://www.w3.org/2000/svg">
<path d="M59.2598 83.1198H39.7233V58.0469H19.7337V83.1198H0.197266V19.875H19.7337V43.5885H39.7233V19.875H59.2598V83.1198ZM103.947 57.4375L97.9264 37.3281L91.9837 57.4375H103.947ZM132.166 83.1198H111.442L107.999 71.2812H88.0098L84.5723 83.1198H63.8483L85.1035 19.875H110.906L132.166 83.1198ZM185.411 0.177063C185.411 4.86977 183.583 8.73437 179.926 11.7656C176.458 14.6042 172.333 16.026 167.557 16.026C162.723 16.026 158.583 14.6042 155.145 11.7656C151.458 8.73437 149.614 4.86977 149.614 0.177063H161.494C161.494 2.27602 162.119 3.91663 163.374 5.0885C164.468 6.15621 165.859 6.6875 167.557 6.6875C169.218 6.6875 170.614 6.15621 171.734 5.0885C172.963 3.91663 173.577 2.27602 173.577 0.177063H185.411ZM198.317 83.1198H178.859V47.5677L155.307 83.1198H136.755V19.7969H156.13V55.9219L179.885 19.7969H198.317V83.1198ZM245.952 67.3489V35.6458H232.885V50.4739C232.885 59.0208 230.947 64.6458 227.067 67.3489H245.952ZM272.536 95.7708H254.593V83.1146H221.786V95.7708H203.926V67.3489C207.968 67.3489 210.822 65.2188 212.489 60.9688C213.77 57.6146 214.411 52.5729 214.411 45.8385V19.875H265.489V67.3489H272.536V95.7708ZM341.265 83.1198H321.807V47.5677L298.255 83.1198H279.702V19.7969H299.077V55.9219L322.833 19.7969H341.265V83.1198ZM437.926 83.1198H414.291L396.067 55.0208V83.1198H376.531V19.875H396.067V46.375L414.046 19.875H436.411L414.046 50.3906L437.926 83.1198ZM501.781 83.1198H482.244V58.0469H462.255V83.1198H442.718V19.875H462.255V43.5885H482.244V19.875H501.781V83.1198ZM574.4 83.1198H554.947V47.5677L531.395 83.1198H512.843V19.7969H532.213V55.9219L555.973 19.7969H574.4V83.1198ZM624.333 35.6458H605.041V83.1198H585.505V19.875H624.333V35.6458ZM689.255 19.875L661.973 83.1198H640.921L648.906 65.5833L625.682 19.875H648.171L658.9 43.3489L668.119 19.875H689.255ZM704.572 67.2656L688.64 95.3646H676.801L684.666 67.2656H704.572ZM799.718 83.1198H776.088L757.859 55.0208V83.1198H738.322V19.875H757.859V46.375L775.838 19.875H798.203L775.838 50.3906L799.718 83.1198Z" fill="#9A345E"/>
<path d="M848.869 51.4948C848.869 46.9375 847.38 43.1563 844.406 40.151C841.541 37.2552 838.005 35.8073 833.796 35.8073C829.593 35.8073 826.041 37.2552 823.15 40.151C820.171 43.1563 818.687 46.9375 818.687 51.4948C818.687 56.0573 820.171 59.8385 823.15 62.8438C826.041 65.7396 829.593 67.1875 833.796 67.1875C838.005 67.1875 841.541 65.7396 844.406 62.8438C847.38 59.8385 848.869 56.0573 848.869 51.4948ZM869.187 51.4948C869.187 60.9167 866.088 68.7552 859.89 75.0104C853.338 81.6406 844.64 84.9635 833.796 84.9635C822.958 84.9635 814.244 81.6406 807.666 75.0104C801.468 68.7552 798.369 60.9167 798.369 51.4948C798.369 42.0781 801.468 34.2396 807.666 27.9844C814.244 21.3542 822.958 18.0312 833.796 18.0312C844.64 18.0312 853.338 21.3542 859.89 27.9844C866.088 34.2396 869.187 42.0781 869.187 51.4948ZM916.291 35.974H902.775V83.1146H883.234V35.974H869.635V19.875H916.291V35.974ZM967.286 51.4948C967.286 46.9375 965.796 43.1563 962.817 40.151C959.952 37.2552 956.416 35.8073 952.213 35.8073C948.005 35.8073 944.458 37.2552 941.562 40.151C938.588 43.1563 937.098 46.9375 937.098 51.4948C937.098 56.0573 938.588 59.8385 941.562 62.8438C944.458 65.7396 948.005 67.1875 952.213 67.1875C956.416 67.1875 959.952 65.7396 962.817 62.8438C965.796 59.8385 967.286 56.0573 967.286 51.4948ZM987.598 51.4948C987.598 60.9167 984.499 68.7552 978.301 75.0104C971.749 81.6406 963.051 84.9635 952.213 84.9635C941.369 84.9635 932.661 81.6406 926.077 75.0104C919.88 68.7552 916.781 60.9167 916.781 51.4948C916.781 42.0781 919.88 34.2396 926.077 27.9844C932.661 21.3542 941.369 18.0312 952.213 18.0312C963.051 18.0312 971.749 21.3542 978.301 27.9844C984.499 34.2396 987.598 42.0781 987.598 51.4948ZM1027.08 40.849C1027.08 36.3177 1024.34 34.0469 1018.85 34.0469H1015.25V47.6458H1018.69C1024.29 47.6458 1027.08 45.3802 1027.08 40.849ZM1047.07 41.3385C1047.07 47.8646 1045.05 52.9115 1041.01 56.474C1036.97 60.0365 1031.15 61.8177 1023.56 61.8177H1015.25V83.1146H995.708V19.875H1021.96C1030.35 19.875 1036.71 21.8958 1041.05 25.9375C1045.07 29.651 1047.07 34.7865 1047.07 41.3385ZM1111.38 19.875L1084.1 83.1198H1063.05L1071.03 65.5833L1047.81 19.875H1070.3L1081.03 43.349L1090.24 19.875H1111.38ZM1187.89 51.5781C1187.89 47.0156 1186.54 43.2917 1183.84 40.3958C1181.21 37.6094 1177.95 36.2188 1174.05 36.2188C1170.11 36.2188 1166.82 37.6094 1164.18 40.3958C1161.47 43.2917 1160.12 47.0156 1160.12 51.5781C1160.12 56.1406 1161.47 59.849 1164.18 62.7188C1166.8 65.4792 1170.09 66.8594 1174.05 66.8594C1177.98 66.8594 1181.24 65.4948 1183.84 62.7604C1186.54 59.8906 1187.89 56.1667 1187.89 51.5781ZM1207.51 51.5781C1207.51 61.5156 1204.32 69.6042 1197.93 75.8281C1191.67 81.9167 1183.66 84.9583 1173.88 84.9583C1165.31 84.9583 1158.02 82.5156 1152.01 77.6302C1146 72.7396 1142.49 66.349 1141.48 58.4583H1134.85V83.1146H1115.4V19.875H1134.85V43.3438H1141.57C1142.98 35.8906 1146.55 29.8698 1152.25 25.2813C1158.18 20.5573 1165.42 18.1979 1173.97 18.1979C1183.63 18.1979 1191.62 21.2708 1197.93 27.4115C1204.32 33.6406 1207.51 41.6927 1207.51 51.5781ZM1301.8 83.1198H1278.37L1267.47 62.8802L1255.96 83.1198H1232.66L1255.88 49.4896L1235.94 19.875H1259.61L1267.47 36.4635L1275.55 19.875H1298.93L1279.23 49.4896L1301.8 83.1198Z" fill="#9A345E"/>
<path d="M1350.5 51.4948C1350.5 46.9375 1349.01 43.1563 1346.04 40.151C1343.17 37.2552 1339.63 35.8073 1335.43 35.8073C1331.22 35.8073 1327.67 37.2552 1324.78 40.151C1321.8 43.1563 1320.31 46.9375 1320.31 51.4948C1320.31 56.0573 1321.8 59.8385 1324.78 62.8438C1327.67 65.7396 1331.22 67.1875 1335.43 67.1875C1339.63 67.1875 1343.17 65.7396 1346.04 62.8438C1349.01 59.8385 1350.5 56.0573 1350.5 51.4948ZM1370.82 51.4948C1370.82 60.9167 1367.71 68.7552 1361.52 75.0104C1354.96 81.6406 1346.26 84.9635 1335.43 84.9635C1324.58 84.9635 1315.87 81.6406 1309.3 75.0104C1303.09 68.7552 1299.99 60.9167 1299.99 51.4948C1299.99 42.0781 1303.09 34.2396 1309.3 27.9844C1315.87 21.3542 1324.58 18.0312 1335.43 18.0312C1346.26 18.0312 1354.96 21.3542 1361.52 27.9844C1367.71 34.2396 1370.82 42.0781 1370.82 51.4948ZM1430.66 83.1198H1411.12V58.5417C1407.9 59.9323 1403.84 60.6302 1398.95 60.6302C1391.28 60.6302 1385.74 58.9219 1382.32 55.5104C1379.02 52.2083 1377.37 46.8438 1377.37 39.4167V19.875H1396.74V37.1615C1396.74 40.0521 1397.28 42.1198 1398.34 43.349C1399.41 44.5729 1401.22 45.1875 1403.79 45.1875C1406.63 45.1875 1409.07 44.8073 1411.12 44.0417V19.875H1430.66V83.1198ZM1481.69 83.1198H1441.76V19.875H1481.69V35.6458H1461.3V43.875H1480.18V58.7865H1461.3V67.349H1481.69V83.1198ZM1575.12 83.1198H1491.15V19.875H1510.28V67.4271H1523.63V19.875H1542.76V67.4271H1555.99V19.875H1575.12V83.1198ZM1618.21 62.7188C1618.21 58.375 1615.42 56.2083 1609.85 56.2083H1605.8V69.276H1610.1C1615.5 69.276 1618.21 67.0885 1618.21 62.7188ZM1637.79 62.1458C1637.79 69.3021 1635.06 74.7344 1629.59 78.4479C1625.04 81.5625 1619.23 83.1198 1612.19 83.1198H1586.26V19.875H1605.8V42.526H1613.37C1619.74 42.526 1625.09 43.875 1629.43 46.5781C1635 50.0208 1637.79 55.2083 1637.79 62.1458ZM1728.47 83.1198H1708.94V35.6458H1689.28V83.1198H1669.73V19.875H1728.47V83.1198ZM1770.98 40.849C1770.98 36.3177 1768.24 34.0469 1762.75 34.0469H1759.15V47.6458H1762.59C1768.19 47.6458 1770.98 45.3802 1770.98 40.849ZM1790.97 41.3385C1790.97 47.8646 1788.95 52.9115 1784.91 56.474C1780.87 60.0365 1775.06 61.8177 1767.46 61.8177H1759.15V83.1146H1739.61V19.875H1765.86C1774.25 19.875 1780.61 21.8958 1784.95 25.9375C1788.97 29.651 1790.97 34.7865 1790.97 41.3385ZM1846.15 51.4948C1846.15 46.9375 1844.66 43.1563 1841.68 40.151C1838.82 37.2552 1835.28 35.8073 1831.07 35.8073C1826.87 35.8073 1823.32 37.2552 1820.43 40.151C1817.45 43.1563 1815.96 46.9375 1815.96 51.4948C1815.96 56.0573 1817.45 59.8385 1820.43 62.8438C1823.32 65.7396 1826.87 67.1875 1831.07 67.1875C1835.28 67.1875 1838.82 65.7396 1841.68 62.8438C1844.66 59.8385 1846.15 56.0573 1846.15 51.4948ZM1866.46 51.4948C1866.46 60.9167 1863.36 68.7552 1857.17 75.0104C1850.61 81.6406 1841.91 84.9635 1831.07 84.9635C1820.23 84.9635 1811.52 81.6406 1804.94 75.0104C1798.74 68.7552 1795.65 60.9167 1795.65 51.4948C1795.65 42.0781 1798.74 34.2396 1804.94 27.9844C1811.52 21.3542 1820.23 18.0312 1831.07 18.0312C1841.91 18.0312 1850.61 21.3542 1857.17 27.9844C1863.36 34.2396 1866.46 42.0781 1866.46 51.4948ZM1926.3 83.1198H1906.77V58.5417C1903.55 59.9323 1899.49 60.6302 1894.6 60.6302C1886.93 60.6302 1881.38 58.9219 1877.97 55.5104C1874.67 52.2083 1873.02 46.8438 1873.02 39.4167V19.875H1892.39V37.1615C1892.39 40.0521 1892.92 42.1198 1893.99 43.349C1895.05 44.5729 1896.87 45.1875 1899.44 45.1875C1902.28 45.1875 1904.72 44.8073 1906.77 44.0417V19.875H1926.3V83.1198ZM1977.34 83.1198H1937.41V19.875H1977.34V35.6458H1956.94V43.875H1975.82V58.7865H1956.94V67.349H1977.34V83.1198ZM2033.66 81.6042C2028 83.8438 2022.75 84.9635 2017.89 84.9635C2007.95 84.9635 1999.77 81.8281 1993.35 75.5625C1986.94 69.2969 1983.73 61.276 1983.73 51.5C1983.73 41.5313 1987.21 33.3646 1994.18 27.0052C2000.73 21.0208 2008.58 18.0312 2017.72 18.0312C2023.24 18.0312 2028.55 19.2083 2033.66 21.5573V41.1771C2029.75 37.2708 2025 35.3177 2019.41 35.3177C2014.76 35.3177 2010.99 36.9583 2008.1 40.2344C2005.34 43.349 2003.96 47.2083 2003.96 51.8229C2003.96 56.4115 2005.42 60.1979 2008.32 63.1875C2011.23 66.1823 2014.93 67.6771 2019.41 67.6771C2025.17 67.6771 2029.92 65.8021 2033.66 62.0677V81.6042ZM2085.1 35.974H2071.59V83.1146H2052.05V35.974H2038.45V19.875H2085.1V35.974ZM2123.36 62.7188C2123.36 58.375 2120.57 56.2083 2115 56.2083H2110.95V69.276H2115.25C2120.66 69.276 2123.36 67.0885 2123.36 62.7188ZM2142.94 62.1458C2142.94 69.3021 2140.21 74.7344 2134.74 78.4479C2130.19 81.5625 2124.38 83.1198 2117.34 83.1198H2091.41V19.875H2110.95V42.526H2118.53C2124.89 42.526 2130.24 43.875 2134.58 46.5781C2140.16 50.0208 2142.94 55.2083 2142.94 62.1458Z" fill="#9A345E"/>
</svg>
